<?xml version="1.0" encoding="UTF-8"?>
<svg version="1.1" xmlns="http://www.w3.org/2000/svg" width="2048" height="1152">
<path d="M0 0 C675.84 0 1351.68 0 2048 0 C2048 380.16 2048 760.32 2048 1152 C1372.16 1152 696.32 1152 0 1152 C0 771.84 0 391.68 0 0 Z " fill="#FEFEFE" transform="translate(0,0)"/>
<path d="M0 0 C1.32 0 2.64 0 4 0 C4 161.04 4 322.08 4 488 C3.34 488 2.68 488 2 488 C1.11825615 486.65974935 0.24164481 485.31598403 -0.6171875 483.9609375 C-2.98935856 480.59701131 -5.82108888 477.64902053 -8.6015625 474.62109375 C-10.09699133 472.98683847 -11.57444861 471.33572448 -13.0234375 469.66015625 C-23.18383594 457.96207299 -34.85378694 447.58710528 -47 438 C-47.75796875 437.37351562 -48.5159375 436.74703125 -49.296875 436.1015625 C-64.12042214 423.91441804 -80.40430062 413.35414179 -96.81542969 403.44311523 C-98.05387028 402.69517335 -99.28771749 401.93956722 -100.51660156 401.17602539 C-103.61370672 399.28302607 -106.61863831 397.70194364 -110.01171875 396.40234375 C-113.9968489 394.76571763 -117.00654187 393.21388951 -120 390 C-121.765413 383.88641665 -121.4226831 377.43339557 -121.0168457 371.14135742 C-120.882991 368.81155884 -120.882991 368.81155884 -122 366 C-123.45792884 365.94600264 -124.91642712 365.90720823 -126.375 365.875 C-127.59316406 365.84019531 -127.59316406 365.84019531 -128.8359375 365.8046875 C-131.21342243 365.78629949 -131.21342243 365.78629949 -133 368 C-133.30599063 370.56916657 -133.51087087 373.04758384 -133.625 375.625 C-133.68300781 376.68460937 -133.68300781 376.68460937 -133.7421875 377.765625 C-133.83647724 379.50998524 -133.91932891 381.25495691 -134 383 C-138.32685627 381.60847909 -142.51496324 380.01319269 -146.71484375 378.27734375 C-165.54680393 370.58035488 -184.32175759 364.19486448 -204 359 C-205.17143555 358.6891748 -206.34287109 358.37834961 -207.54980469 358.05810547 C-221.63090701 354.28839152 -221.63090701 354.28839152 -236 352 C-236.029729 351.10692139 -236.029729 351.10692139 -236.06005859 350.19580078 C-236.15516126 347.50507847 -236.26489842 344.81514852 -236.375 342.125 C-236.4059375 341.18785156 -236.436875 340.25070312 -236.46875 339.28515625 C-236.50742188 338.38925781 -236.54609375 337.49335938 -236.5859375 336.5703125 C-236.63306885 335.32918701 -236.63306885 335.32918701 -236.68115234 334.06298828 C-236.82599137 331.78013915 -236.82599137 331.78013915 -239 330 C-242.5 329.66666667 -242.5 329.66666667 -246 330 C-249.02093215 333.02093215 -248.46676834 336.56372072 -248.625 340.625 C-248.68300781 341.82769531 -248.68300781 341.82769531 -248.7421875 343.0546875 C-248.83653931 345.03607556 -248.91936215 347.01800645 -249 349 C-252.62509683 348.68861696 -256.25005838 348.37568429 -259.875 348.0625 C-260.88820313 347.97548828 -261.90140625 347.88847656 -262.9453125 347.79882812 C-263.95078125 347.71181641 -264.95625 347.62480469 -265.9921875 347.53515625 C-267.35899658 347.41732788 -267.35899658 347.41732788 -268.75341797 347.29711914 C-270.51794574 347.13563393 -272.2821515 346.96851499 -274.04312325 346.77200985 C-281.06267221 346.0056167 -288.07035135 345.68769393 -295.125 345.4375 C-296.27226563 345.39431641 -297.41953125 345.35113281 -298.6015625 345.30664062 C-301.40095143 345.20166354 -304.20041215 345.09950535 -307 345 C-307.30410825 321.73858219 -307.53313288 298.47749356 -307.67355824 275.21448898 C-307.74050321 264.41217219 -307.83171651 253.61109271 -307.98071289 242.80957031 C-308.11056543 233.39136953 -308.1942211 223.97406498 -308.22315043 214.55499387 C-308.2400544 209.570209 -308.27957535 204.58798729 -308.37449074 199.60402679 C-308.46324973 194.90492199 -308.48985388 190.20941549 -308.47039986 185.509552 C-308.47395412 183.79218167 -308.49952338 182.07468154 -308.54967117 180.35803986 C-308.92662399 166.77946577 -308.92662399 166.77946577 -304.19782066 161.38932037 C-301.52335766 158.74636596 -298.66474687 156.42404223 -295.63307989 154.20479822 C-293.18115664 152.39590155 -290.8842737 150.40892792 -288.5625 148.4375 C-286.71270678 146.95286769 -284.85832854 145.47393456 -283 144 C-281.94519216 143.15249351 -280.89050975 142.30483088 -279.8359375 141.45703125 C-254.80889318 121.44417978 -227.82257087 103.26804583 -200.09130859 87.22216797 C-198.10276311 86.06005512 -196.13705178 84.86759993 -194.17578125 83.66015625 C-180.56796935 75.34533312 -166.2667071 68.2734501 -152.05566406 61.06152344 C-148.43408789 59.22315882 -144.82197578 57.3668005 -141.2109375 55.5078125 C-117.87055468 43.56576072 -93.89318065 33.34908202 -69.4375 23.9375 C-68.62310455 23.62371399 -67.80870911 23.30992798 -66.96963501 22.9866333 C-56.72607429 19.05214085 -46.43210502 15.40226955 -36 12 C-33.88976969 11.29160531 -31.78035092 10.58078705 -29.671875 9.8671875 C-28.68703125 9.53589844 -27.7021875 9.20460937 -26.6875 8.86328125 C-24.71276793 8.19890996 -22.73881974 7.5322046 -20.765625 6.86328125 C-14.91921756 4.9016577 -9.06462859 3.15108822 -3.09082031 1.61767578 C-1.03088851 1.19015441 -1.03088851 1.19015441 0 0 Z " fill="#030303" transform="translate(1338,123)"/>
<path d="M0 0 C19.57901881 4.60682795 19.57901881 4.60682795 26.73046875 7.14453125 C27.97065765 7.57386459 27.97065765 7.57386459 29.23590088 8.01187134 C31.89016588 8.93514377 34.53914104 9.87243171 37.1875 10.8125 C38.11386261 11.13880402 39.04022522 11.46510803 39.99465942 11.80130005 C90.88931054 29.74666235 141.29486169 50.78455441 188 78 C189.33191458 78.76452621 190.66394838 79.52884475 191.99609375 80.29296875 C221.17441009 97.14437529 249.9209854 115.59945871 276 137 C277.56220682 138.22953927 279.12471923 139.45869033 280.6875 140.6875 C286.94925967 145.69295086 293.07424647 150.90867754 298.99718475 156.31224728 C300.93362213 158.03667539 300.93362213 158.03667539 303.08046722 159.23941135 C307.00862481 161.82933786 308.75857467 163.82907941 309.72343445 168.50868034 C310.0944993 173.10933041 309.99016441 177.70767609 309.90820312 182.31811523 C309.90594504 184.09252317 309.90721612 185.86693857 309.91174316 187.64134216 C309.91403512 192.44721781 309.86706004 197.25149056 309.8111515 202.0569942 C309.76108232 207.08308417 309.75643707 212.10921242 309.74694824 217.13551331 C309.7221003 226.64836277 309.65647445 236.16047522 309.57615232 245.6730004 C309.48667947 256.50477493 309.44273371 267.33658498 309.40258884 278.16863716 C309.31900687 300.44616919 309.17832668 322.72303814 309 345 C308.32468231 345.02472885 307.64936462 345.0494577 306.95358276 345.07493591 C303.84130698 345.1909326 300.72925856 345.31223323 297.6171875 345.43359375 C296.5552417 345.47238647 295.4932959 345.5111792 294.39916992 345.55114746 C287.19343884 345.83700149 280.09345333 346.44615284 272.93972778 347.33358765 C267.57367303 347.9847917 262.39819548 348.17413534 257 348 C256.96261719 346.95199219 256.92523437 345.90398437 256.88671875 344.82421875 C256.82105485 343.44527695 256.75460765 342.06637229 256.6875 340.6875 C256.66494141 339.99720703 256.64238281 339.30691406 256.61914062 338.59570312 C256.46409741 335.67807175 256.33497658 333.49750959 254.6796875 331.0390625 C251.84676443 329.28660311 249.2224774 329.70704751 246 330 C243.6031335 332.3968665 243.71718867 333.07028314 243.5859375 336.3515625 C243.52792969 337.62773438 243.52792969 337.62773438 243.46875 338.9296875 C243.4378125 339.81914062 243.406875 340.70859375 243.375 341.625 C243.33632813 342.5221875 243.29765625 343.419375 243.2578125 344.34375 C243.16340643 346.5622927 243.07783252 348.78082403 243 351 C237.94341469 352.51059281 232.85506983 353.75909425 227.71508789 354.953125 C213.98918572 358.15048531 200.46892349 361.85627801 187 366 C186.20577637 366.24186035 185.41155273 366.4837207 184.59326172 366.73291016 C173.73375614 370.0719434 163.30984472 374.24460532 152.88085938 378.74926758 C151.90052734 379.16974365 150.92019531 379.59021973 149.91015625 380.0234375 C149.03496338 380.40419434 148.15977051 380.78495117 147.25805664 381.17724609 C145 382 145 382 142 382 C141.93941406 381.09636719 141.87882813 380.19273437 141.81640625 379.26171875 C141.73261719 378.08222656 141.64882813 376.90273438 141.5625 375.6875 C141.48128906 374.51574219 141.40007812 373.34398437 141.31640625 372.13671875 C141.1132629 368.97409042 141.1132629 368.97409042 140 366 C138.741875 365.814375 137.48375 365.62875 136.1875 365.4375 C135.47980469 365.33308594 134.77210938 365.22867187 134.04296875 365.12109375 C131.7974658 364.86095201 131.7974658 364.86095201 129 366 C127.99538892 369.01383323 127.9961476 370.47641785 128.24609375 373.5703125 C128.90627855 387.49329547 128.90627855 387.49329547 125.74121094 391.65527344 C122.11227232 394.55886933 117.78198717 396.16586128 113.50830078 397.90087891 C108.87027243 399.93323278 104.58735412 402.58768429 100.25 405.1875 C99.31945801 405.73728516 98.38891602 406.28707031 97.43017578 406.85351562 C76.2527874 419.48474538 56.42833089 434.6411872 38 451 C37.24920166 451.66322266 36.49840332 452.32644531 35.72485352 453.00976562 C29.56719535 458.49286748 23.64429707 464.17268548 17.8125 470 C16.53729492 471.25683594 16.53729492 471.25683594 15.23632812 472.5390625 C10.52320198 477.24127021 6.23772027 482.02222005 2.28393555 487.3828125 C1.86023682 487.91648437 1.43653809 488.45015625 1 489 C0.67 489 0.34 489 0 489 C0 327.63 0 166.26 0 0 Z " fill="#020202" transform="translate(708,123)"/>
<path d="M0 0 C1.43965189 -0.02986039 2.87948302 -0.05116173 4.31933594 -0.06884766 C5.12111267 -0.0816275 5.9228894 -0.09440735 6.7489624 -0.10757446 C12.15747634 0.15089211 16.86718165 3.96684606 20.671875 7.59375 C25.35894062 12.99766095 26.29444272 17.09201078 26.25447559 24.1195631 C26.25928531 25.36339627 26.25928531 25.36339627 26.26419219 26.63235739 C26.27253687 29.42922451 26.26655231 32.22587997 26.26069641 35.02275085 C26.26371507 37.04094246 26.26760311 39.05913293 26.27228898 41.07732135 C26.28261481 46.63769917 26.28037551 52.19801284 26.27610838 57.75839603 C26.27364939 63.74969937 26.28264509 69.74098692 26.29014587 75.73228455 C26.30291877 87.47639648 26.30468912 99.22049041 26.30234561 110.96460667 C26.3005141 120.5091555 26.30226957 130.05369762 26.30657005 139.59824562 C26.30717245 140.96873708 26.30777365 142.33922853 26.30837366 143.70971999 C26.3092809 145.77486089 26.31018956 147.84000179 26.31110601 149.90514269 C26.31953856 169.11223405 26.32386925 188.31932287 26.31969929 207.52641582 C26.31954291 208.25082632 26.31938654 208.97523682 26.31922542 209.72159915 C26.31841962 213.39331334 26.31757385 217.06502751 26.31671212 220.73674168 C26.31654103 221.46597199 26.31636994 222.19520229 26.31619367 222.94653048 C26.31584702 224.42121325 26.31549849 225.89589603 26.31514808 227.37057881 C26.30979231 250.31046293 26.31771596 273.2503086 26.33618164 296.19018555 C26.3568983 321.95670766 26.36762482 347.72320595 26.36360615 373.48973686 C26.3632108 376.23738308 26.36284926 378.98502932 26.36250877 381.73267555 C26.36241804 382.40922648 26.36232731 383.08577741 26.36223383 383.78282988 C26.36106778 393.99679271 26.36771688 404.21073151 26.37832069 414.42468834 C26.39037014 426.04305194 26.39165644 437.66137199 26.37953053 449.27973809 C26.37363078 455.2088728 26.37257264 461.13790397 26.38453293 467.06703186 C26.39535445 472.49470009 26.39233278 477.92217786 26.37827124 483.34983704 C26.37561398 485.31352535 26.378023 487.2772284 26.38600711 489.24090227 C26.39611086 491.9112415 26.38769311 494.58091838 26.37473011 497.25123119 C26.38203946 498.01257395 26.3893488 498.7739167 26.39687964 499.55833045 C26.3254977 506.65856372 24.88304634 513.32082042 19.98828125 518.6640625 C13.21593914 524.01721756 4.31327515 525.91249107 -3.8125 528.375 C-5.61663755 528.93795908 -7.42010114 529.50308234 -9.22290039 530.0703125 C-12.81265259 531.19860157 -16.40486799 532.31844121 -19.99902344 533.43261719 C-26.68204566 535.51449526 -33.30913967 537.75088474 -39.9375 540 C-47.69636048 542.61218061 -55.46890822 545.08672658 -63.34277344 547.32788086 C-68.79338102 548.89291357 -74.0884198 550.79127296 -79.40893555 552.74609375 C-82.75045932 553.91286689 -86.08551913 554.91307646 -89.49609375 555.85546875 C-97.01485327 557.97754328 -104.44669815 560.33327354 -111.875 562.75 C-113.23703551 563.19132077 -114.5990965 563.63256292 -115.96118164 564.07373047 C-130.11413312 568.6643685 -144.22567335 573.37797514 -158.32421875 578.1328125 C-167.57460976 581.24526681 -176.79950855 584.29866904 -186.20703125 586.90625 C-198.92165505 590.57267087 -211.47701345 594.81051841 -224.0234375 599.01171875 C-225.19629807 599.40419296 -225.19629807 599.40419296 -226.39285278 599.80459595 C-230.25468664 601.09771683 -234.11504442 602.39500034 -237.97314453 603.69921875 C-246.00722188 606.40441806 -254.06064762 608.96960747 -262.21435547 611.29289246 C-267.77242018 612.88562816 -273.14592545 614.80723543 -278.56640625 616.8125 C-283.31979901 618.45644926 -288.15949482 619.69863887 -293.0390625 620.91015625 C-297.83628835 622.67588977 -299.56123746 625.05747306 -301.6875 629.625 C-308.44092482 643.90595763 -323.01795733 652.39537009 -337.25 657.75 C-361.5579194 664.98396492 -387.82742795 663.85639916 -410.7421875 652.66015625 C-421.92529211 646.3718373 -431.66487933 637.47924555 -435.375 624.875 C-435.58125 623.92625 -435.7875 622.9775 -436 622 C-437.75957031 621.65388672 -437.75957031 621.65388672 -439.5546875 621.30078125 C-446.55209681 619.74352271 -453.320548 617.41764766 -460.125 615.1875 C-461.45040125 614.7567933 -462.77592158 614.32645284 -464.1015625 613.89648438 C-470.08827452 611.95099278 -476.06619665 609.98114739 -482.03370667 607.9775238 C-487.72420285 606.06787601 -493.40835198 604.24486657 -499.1875 602.625 C-505.60761551 600.78907355 -511.89878553 598.68066889 -518.1875 596.4375 C-523.61152639 594.50333524 -529.00370041 592.64292657 -534.5625 591.125 C-541.57099072 589.20679934 -548.4281597 586.88358669 -555.3125 584.5625 C-562.71786591 582.06859498 -570.11122457 579.58604228 -577.625 577.4375 C-597.02434504 571.88755614 -616.14369954 565.3447937 -635.26074219 558.90087891 C-638.75629595 557.72299701 -642.2531381 556.54899178 -645.75 555.375 C-646.81395996 555.0147876 -647.87791992 554.6545752 -648.97412109 554.28344727 C-655.70076651 552.02736593 -662.46348626 549.95918461 -669.27488708 547.97947693 C-677.17325792 545.67570998 -685.01639997 543.2026762 -692.85864258 540.71557617 C-695.32764844 539.93269669 -697.79754696 539.15268473 -700.26757812 538.37304688 C-707.00290146 536.24363477 -713.73231195 534.10599539 -720.42578125 531.84765625 C-724.26066738 530.55716234 -728.10886114 529.35535633 -731.9921875 528.21875 C-733.45011719 527.79142578 -733.45011719 527.79142578 -734.9375 527.35546875 C-736.91744848 526.77886141 -738.89927805 526.20867936 -740.8828125 525.64453125 C-749.33243829 523.1480509 -754.68315312 520.32862679 -760 513 C-762.74052684 507.63911899 -763.43310596 503.51189205 -763.38031673 497.53973484 C-763.38497665 496.71012834 -763.38963657 495.88052185 -763.3944377 495.02577576 C-763.40638954 492.24558377 -763.39699152 489.46588029 -763.38768005 486.6856842 C-763.39185288 484.67243876 -763.39733011 482.65919566 -763.40399987 480.64595693 C-763.4184798 475.1132025 -763.41420175 469.5805967 -763.40683305 464.04783404 C-763.40211003 458.0811355 -763.41460354 452.11446953 -763.42485046 446.14778137 C-763.44106565 435.13430289 -763.44348033 424.1208669 -763.43854547 413.10737991 C-763.43398858 402.93242992 -763.43458712 392.75749757 -763.44038582 382.58254814 C-763.44114268 381.21778241 -763.44189866 379.85301668 -763.44265376 378.48825095 C-763.44379895 376.43168334 -763.44494883 374.37511573 -763.44611301 372.31854813 C-763.45681819 353.19825763 -763.46154304 334.07797301 -763.45364285 314.9576807 C-763.45319709 313.87652278 -763.45319709 313.87652278 -763.45274232 312.77352329 C-763.45029337 306.92031497 -763.44768179 301.06710672 -763.44505819 295.21389848 C-763.43495509 272.38093369 -763.44331225 249.54804243 -763.46655273 226.71508789 C-763.49262135 201.06208099 -763.50547439 175.40911837 -763.49836498 149.75609773 C-763.49764892 147.02115437 -763.49697453 144.286211 -763.49632454 141.55126762 C-763.49615473 140.87785508 -763.49598492 140.20444253 -763.49580997 139.51062354 C-763.49350647 129.34289691 -763.50148633 119.17521138 -763.51461601 109.00749397 C-763.52951996 97.44515077 -763.53000536 85.88290226 -763.5125451 74.32056052 C-763.50401279 68.41985488 -763.50194006 62.51933329 -763.51719666 56.61863708 C-763.53098705 51.21822599 -763.52635336 45.81815761 -763.50695742 40.41776662 C-763.50317974 38.46293496 -763.50616997 36.50807621 -763.51656907 34.55326856 C-763.52969557 31.89713384 -763.51819463 29.24218957 -763.50057125 26.5861063 C-763.51022176 25.82620277 -763.51987227 25.06629923 -763.52981523 24.28336832 C-763.43889132 17.61452721 -761.20798738 12.48398581 -756.78125 7.50390625 C-756.0284375 6.86324219 -755.275625 6.22257813 -754.5 5.5625 C-753.7471875 4.90378906 -752.994375 4.24507812 -752.21875 3.56640625 C-748.23240521 0.75210298 -744.54357256 0.88539595 -739.75 0.9375 C-738.67234375 0.94652344 -737.5946875 0.95554688 -736.484375 0.96484375 C-735.66453125 0.97644531 -734.8446875 0.98804688 -734 1 C-733.99940291 2.03145403 -733.99880582 3.06290806 -733.99819064 4.12561828 C-733.9716241 49.56582753 -733.94012861 95.00603042 -733.88336182 140.44621277 C-733.88250431 141.13375052 -733.8816468 141.82128827 -733.8807633 142.52966049 C-733.86209931 157.47035885 -733.84254697 172.41105592 -733.82207905 187.35175191 C-733.81204754 194.67826733 -733.80221241 202.00478301 -733.79248047 209.33129883 C-733.79150866 210.06038979 -733.79053686 210.78948074 -733.7895356 211.54066536 C-733.75810736 235.18857708 -733.73965608 258.83647737 -733.72790753 282.48440636 C-733.71576981 306.77812145 -733.6905938 331.07178877 -733.64892386 355.36547202 C-733.64304945 358.79383078 -733.63732467 362.22218977 -733.63169098 365.65054893 C-733.63057752 366.3253241 -733.62946406 367.00009927 -733.62831686 367.69532216 C-733.61075143 378.57378544 -733.60700181 389.45221207 -733.60837079 400.33068762 C-733.60945273 411.25728278 -733.59576955 422.18379261 -733.56783572 433.11035398 C-733.55312699 439.0346843 -733.54504025 444.95883695 -733.55419731 450.88318253 C-733.56242818 456.2996646 -733.55248502 461.71578826 -733.52766338 467.13221689 C-733.52193609 469.09860196 -733.52306182 471.06502053 -733.53148755 473.03139589 C-733.54191408 475.69122855 -733.52807294 478.34983059 -733.50780869 481.00957966 C-733.51671239 481.78461919 -733.5256161 482.55965873 -733.53478962 483.35818431 C-733.48809792 487.60350439 -733.48809792 487.60350439 -731.08737206 490.94886416 C-729.08805478 491.95565834 -727.20733358 492.77345099 -725.0703125 493.4375 C-724.29002686 493.68709473 -723.50974121 493.93668945 -722.70581055 494.19384766 C-721.85414307 494.45987793 -721.00247559 494.7259082 -720.125 495 C-710.88795957 497.97320073 -701.78115353 501.24534573 -692.6875 504.625 C-684.80366537 507.55189012 -676.93553307 510.46441102 -668.875 512.875 C-663.51607058 514.4815313 -658.46805849 516.41760746 -653.3359375 518.6328125 C-645.69017197 521.76632296 -637.8121247 524.31599041 -630 527 C-586.5954217 541.95172383 -586.5954217 541.95172383 -568.1875 548.9375 C-559.64678341 552.1783557 -551.0270766 555.19606197 -542.4135437 558.23648071 C-535.16454097 560.79581269 -527.92690442 563.36820624 -520.75 566.125 C-512.54307498 569.25706763 -504.19517859 571.96200633 -495.83886719 574.66650391 C-489.35570282 576.78786844 -483.07007917 579.15731354 -476.79589844 581.83276367 C-472.75409943 583.52014064 -468.64350654 584.96024912 -464.5 586.375 C-463.65759766 586.66681152 -462.81519531 586.95862305 -461.94726562 587.25927734 C-459.2993917 588.17641529 -456.64993689 589.08884135 -454 590 C-450.49847419 591.20397039 -446.99875906 592.41301594 -443.5 593.625 C-442.33694336 594.02211182 -442.33694336 594.02211182 -441.15039062 594.42724609 C-436.80919902 595.93159213 -432.568751 597.5817531 -428.33984375 599.37890625 C-421.35297003 602.32553947 -414.22015051 604.82113688 -407.0625 607.3125 C-391.83303429 612.63093619 -391.83303429 612.63093619 -384.5234375 615.52734375 C-383.56816162 615.90528076 -382.61288574 616.28321777 -381.62866211 616.67260742 C-379.88736675 617.36972585 -378.15077962 618.07877297 -376.42016602 618.80200195 C-375.65115967 619.10968506 -374.88215332 619.41736816 -374.08984375 619.734375 C-373.43878662 620.00475586 -372.78772949 620.27513672 -372.11694336 620.55371094 C-366.21966815 621.79696074 -360.16871664 618.76294709 -354.71484375 616.74609375 C-353.80266083 616.41374222 -352.89047791 616.08139069 -351.95065308 615.7389679 C-349.9778151 615.01964982 -348.00581773 614.29802296 -346.03457642 613.57434082 C-340.7274196 611.62624794 -335.41404185 609.69523886 -330.1015625 607.76171875 C-329.01029556 607.36401276 -327.91902863 606.96630676 -326.79469299 606.55654907 C-315.82174957 602.56125795 -304.81974971 598.6495611 -293.8125 594.75 C-279.73453908 589.75828438 -265.67033886 584.73138621 -251.6260376 579.64575195 C-238.78010994 574.99457226 -225.91652205 570.39417038 -213.04681396 565.80923462 C-202.89063315 562.19016042 -192.74201099 558.5517238 -182.609375 554.8671875 C-161.35831668 547.14193212 -140.07097928 539.55028112 -118.6958313 532.17456055 C-103.21882893 526.83312275 -87.79337639 521.36846017 -72.40640259 515.7734375 C-71.71154755 515.52078125 -71.0166925 515.268125 -70.30078125 515.0078125 C-69.61503021 514.75837891 -68.92927917 514.50894531 -68.2227478 514.25195312 C-63.27494787 512.45516932 -58.31804215 510.68523069 -53.35546875 508.9296875 C-52.6518219 508.68074738 -51.94817505 508.43180725 -51.22320557 508.17532349 C-47.92636568 507.00991488 -44.62852126 505.84746882 -41.32958984 504.68798828 C-35.53987645 502.64535762 -29.7841213 500.54726886 -24.0625 498.3203125 C-18.68231301 496.23112566 -13.33363948 494.54437889 -7.77734375 492.9921875 C-4.79429918 491.92651476 -3.19401982 491.28872983 -1 489 C-0.59872145 486.20250488 -0.46008679 483.79434427 -0.49219131 480.99396229 C-0.48588756 480.16488602 -0.47958381 479.33580976 -0.47308904 478.48160997 C-0.45671276 475.67909858 -0.46903418 472.87742892 -0.48101807 470.0749054 C-0.47514774 468.05528317 -0.46752329 466.0356654 -0.458287 464.01605576 C-0.43793377 458.44738655 -0.44260484 452.87897072 -0.45119452 447.31028116 C-0.45612071 441.31229324 -0.43807776 435.3143705 -0.42277527 429.31640625 C-0.39941347 418.91826192 -0.39057799 408.52017005 -0.39188385 398.12200356 C-0.39319314 387.21410113 -0.3862715 376.30625532 -0.36830902 365.39836693 C-0.36664194 364.38179089 -0.36664194 364.38179089 -0.36494118 363.34467797 C-0.35925425 359.90302268 -0.3534198 356.46136766 -0.34752855 353.01971271 C-0.30604486 328.62992796 -0.28308841 304.24015734 -0.27099609 279.8503418 C-0.25920481 256.15305983 -0.23904102 232.45580922 -0.20751953 208.75854492 C-0.20655158 208.02834616 -0.20558363 207.2981474 -0.20458635 206.5458214 C-0.1948567 199.21299748 -0.18495659 191.88017381 -0.17493158 184.54735029 C-0.15451259 169.60897596 -0.13523147 154.67060022 -0.11663818 139.73222351 C-0.11578185 139.0453513 -0.11492553 138.35847908 -0.11404325 137.65079256 C-0.05697027 91.76721199 -0.02650674 45.88360732 0 0 Z " fill="#050504" transform="translate(1392,188)"/>
<path d="M0 0 C24.72730383 0 24.72730383 0 35.02734375 2.015625 C35.82253418 2.17095703 36.61772461 2.32628906 37.43701172 2.48632812 C38.28279785 2.65583984 39.12858398 2.82535156 40 3 C41.42143311 3.28133789 41.42143311 3.28133789 42.87158203 3.56835938 C72.87505332 9.58951387 98.48144919 20.95005033 121 42 C121.67708008 42.62793457 122.35416016 43.25586914 123.05175781 43.90283203 C144.16261702 63.6720216 160.18426664 88.14846391 171 115 C171 115.66 171 116.32 171 117 C170.41138184 117.26401611 169.82276367 117.52803223 169.21630859 117.80004883 C141.13109207 130.45415048 113.22832631 143.85286253 86.64990234 159.45507812 C83.89121947 161.06342023 81.11405808 162.63554624 78.33203125 164.203125 C53.20508041 178.4587039 26.91597587 194.45135082 5.44311523 213.90283203 C4 215 4 215 2 215 C2 215.66 2 216.32 2 217 C1.34 217 0.68 217 0 217 C0 145.39 0 73.78 0 0 Z " fill="#030303" transform="translate(1031,573)"/>
<path d="M0 0 C7.26 0 14.52 0 22 0 C22 170.61 22 341.22 22 517 C3.19958395 523.63544096 -15.58992751 530.26036341 -34.44140625 536.7421875 C-40.40363788 538.79249262 -46.36059155 540.85742321 -52.3125 542.9375 C-53.08835449 543.20796143 -53.86420898 543.47842285 -54.66357422 543.75708008 C-55.38947754 544.01126709 -56.11538086 544.2654541 -56.86328125 544.52734375 C-57.78040894 544.84819946 -57.78040894 544.84819946 -58.71606445 545.17553711 C-60.74350157 545.90740832 -62.76162589 546.65906435 -64.77905273 547.41796875 C-68.73252414 548.90428883 -72.69893347 550.35181862 -76.671875 551.78515625 C-77.38432373 552.04257095 -78.09677246 552.29998566 -78.83081055 552.56520081 C-81.13700561 553.39819294 -83.44348804 554.23038577 -85.75 555.0625 C-86.53991333 555.34768494 -87.32982666 555.63286987 -88.14367676 555.92669678 C-100.1418167 560.25826558 -112.14818503 564.56618083 -124.16699219 568.84008789 C-125.74722168 569.40264282 -125.74722168 569.40264282 -127.359375 569.9765625 C-128.26139648 570.29705566 -129.16341797 570.61754883 -130.09277344 570.94775391 C-132.33965997 571.76099551 -134.57658527 572.59215825 -136.81176758 573.43652344 C-141.06920283 575.03769653 -145.3560729 576.54577872 -149.65234375 578.0390625 C-151.31837265 578.6201605 -152.98438775 579.2012981 -154.65039062 579.7824707 C-155.51253174 580.08287262 -156.37467285 580.38327454 -157.26293945 580.69277954 C-170.11606924 585.17274937 -182.96123474 589.6698801 -195.7565918 594.31274414 C-202.97646574 596.92615264 -210.21214074 599.49260375 -217.453125 602.046875 C-218.49488892 602.41463547 -219.53665283 602.78239594 -220.60998535 603.16130066 C-229.14313917 606.17339662 -229.14313917 606.17339662 -233.33398438 607.64663696 C-255.70940471 615.46068546 -255.70940471 615.46068546 -277.7520752 624.15628052 C-279.10117981 624.72002884 -279.10117981 624.72002884 -280.47753906 625.29516602 C-281.29546936 625.64442642 -282.11339966 625.99368683 -282.95611572 626.35353088 C-285 627 -285 627 -287 626 C-263.3472179 610.10151826 -239.19577288 595.3371159 -214 582 C-212.36955367 581.12935179 -210.73933159 580.25828346 -209.109375 579.38671875 C-204.42386499 576.89011412 -199.71801652 574.43456368 -195 572 C-194.13600586 571.55366211 -193.27201172 571.10732422 -192.38183594 570.64746094 C-175.20463024 561.81645022 -157.6896873 553.78387797 -140.05609131 545.9173584 C-138.08449014 545.03769664 -136.11373828 544.15615521 -134.14306641 543.27441406 C-99.16127362 527.64617866 -63.64287291 513.24215316 -27.9140625 499.41796875 C-27.16517258 499.127547 -26.41628265 498.83712524 -25.6446991 498.53790283 C-21.89701259 497.09128245 -18.14025529 495.68164476 -14.35839844 494.32666016 C-13.61794281 494.0586409 -12.87748718 493.79062164 -12.11459351 493.51448059 C-10.71815379 493.01118964 -9.31871838 492.51610512 -7.91592407 492.0308075 C-4.39100314 490.75642006 -3.14759123 490.22138685 -1 487 C-0.803709 484.30744677 -0.72557901 481.71825047 -0.73828697 479.02519703 C-0.73429091 478.19949751 -0.73029485 477.37379799 -0.72617769 476.52307728 C-0.71513326 473.73226977 -0.71841453 470.94165823 -0.7215271 468.15083313 C-0.71652821 466.13946389 -0.71065363 464.12809666 -0.70397437 462.1167323 C-0.68811105 456.57093371 -0.68474022 451.02518568 -0.68332577 445.47936714 C-0.67964273 439.50593414 -0.6644928 433.53252924 -0.65071106 427.55911255 C-0.62839984 417.20354434 -0.61334046 406.84798181 -0.60334396 396.4923954 C-0.59282718 385.62916331 -0.57820126 374.76594962 -0.55806351 363.90273094 C-0.55681464 363.22778628 -0.55556577 362.55284162 -0.55427906 361.85744408 C-0.54791548 358.42986898 -0.54147826 355.00229401 -0.53501268 351.57471909 C-0.48932606 327.28476698 -0.45288868 302.99480889 -0.421875 278.70483398 C-0.39172082 255.10456467 -0.35738684 231.5043075 -0.31738281 207.90405273 C-0.31615181 207.17684208 -0.31492081 206.44963143 -0.3136525 205.7003841 C-0.30128585 198.39756706 -0.28883411 191.09475017 -0.27632002 183.79193339 C-0.25082833 168.91469042 -0.2259047 154.03744652 -0.20132446 139.16020203 C-0.20019355 138.47614079 -0.19906264 137.79207955 -0.19789747 137.08728919 C-0.12241711 91.3915401 -0.06033248 45.69577132 0 0 Z " fill="#060606" transform="translate(1356,152)"/>
<path d="M0 0 C7.26 0 14.52 0 22 0 C22.33 161.7 22.66 323.4 23 490 C27.455 491.485 27.455 491.485 32 493 C47.1375985 498.10038265 61.95564362 503.8567158 76.75 509.875 C77.876409 510.33165039 79.00281799 510.78830078 80.1633606 511.25878906 C119.9335431 527.38440094 159.46624746 544.0802989 198 563 C198.64749207 563.31708923 199.29498413 563.63417847 199.96209717 563.96087646 C218.63190663 573.10474257 237.04839383 582.496091 255 593 C256.44480757 593.83290775 257.89009461 594.66498452 259.3359375 595.49609375 C275.89468138 605.06679765 292.23022918 615.17557398 308 626 C306 627 306 627 302.37084961 625.83178711 C300.79507967 625.23803677 299.22245768 624.63589336 297.65234375 624.02734375 C296.8076503 623.70721817 295.96295685 623.38709259 295.09266663 623.05726624 C292.37148516 622.02451523 289.65439827 620.981461 286.9375 619.9375 C283.40612595 618.5893447 279.87317305 617.24536514 276.33984375 615.90234375 C275.46967621 615.5708432 274.59950867 615.23934265 273.70297241 614.89779663 C266.76094729 612.26285378 259.77737567 609.76386477 252.76391602 607.32641602 C249.44158211 606.15561494 246.14361839 604.93817604 242.84846497 603.69407654 C240.42081088 602.7825214 237.97988106 601.91150316 235.53515625 601.046875 C233.99807007 600.50135986 233.99807007 600.50135986 232.42993164 599.94482422 C231.3186792 599.55053223 230.20742676 599.15624023 229.0625 598.75 C218.06337395 594.83648905 207.09427932 590.84550177 196.13568115 586.82000732 C180.76442168 581.17487318 165.36905156 575.60326393 149.9375 570.125 C149.00998932 569.79571503 148.08247864 569.46643005 147.12686157 569.12716675 C137.4105605 565.6793048 127.69027587 562.24275599 117.96795654 558.81190491 C112.89490763 557.02155925 107.82239672 555.22969245 102.75 553.4375 C101.75566956 553.08638153 100.76133911 552.73526306 99.73687744 552.37350464 C83.53681904 546.64967748 67.3864576 540.79778739 51.27832031 534.82006836 C43.48944125 531.93880186 35.71108116 529.21850644 27.74902344 526.8425293 C24.09148867 525.72155661 20.56525378 524.38711241 17 523 C15.58555634 522.47407903 14.17016324 521.95070561 12.75390625 521.4296875 C11.35677083 520.91145833 9.95963542 520.39322917 8.5625 519.875 C7.48452148 519.47861328 7.48452148 519.47861328 6.38476562 519.07421875 C1.11278195 517.11278195 1.11278195 517.11278195 0 516 C-0.0989683 513.26454881 -0.13175749 510.55432731 -0.12304783 507.81838894 C-0.12420167 506.94603427 -0.12535552 506.07367961 -0.12654433 505.17488995 C-0.12921877 502.21337143 -0.12468207 499.25190585 -0.12025452 496.29039001 C-0.12069005 494.16112984 -0.12156462 492.03186972 -0.12284368 489.90260988 C-0.12509216 484.02165037 -0.12106256 478.14070889 -0.11606562 472.25975168 C-0.11176634 465.92910344 -0.11320717 459.5984563 -0.1139679 453.26780701 C-0.11449346 442.28959312 -0.11137797 431.31138601 -0.10573006 420.33317375 C-0.09981959 408.81518463 -0.09596544 397.29719786 -0.09487724 385.77920723 C-0.0948085 385.06392103 -0.09473976 384.34863483 -0.09466894 383.61167329 C-0.09433062 379.97931908 -0.09402923 376.34696486 -0.09374207 372.71461064 C-0.09163984 346.96493088 -0.08489743 321.2152542 -0.07543945 295.46557617 C-0.06625989 270.44506853 -0.05917389 245.42456173 -0.05493164 220.40405273 C-0.05480011 219.63325141 -0.05466859 218.86245009 -0.05453308 218.06829115 C-0.05321459 210.32781641 -0.05193877 202.58734167 -0.05069422 194.84686692 C-0.04815778 179.07764451 -0.04533653 163.30842216 -0.04234314 147.53919983 C-0.04220585 146.81410483 -0.04206856 146.08900984 -0.04192711 145.34194227 C-0.03272141 96.89462685 -0.01679895 48.44731331 0 0 Z " fill="#060606" transform="translate(672,152)"/>
<path d="M0 0 C0 70.95 0 141.9 0 215 C-4.2652223 212.15651846 -8.22627799 209.27135371 -12.1875 206.0625 C-20.78542411 199.21308874 -29.85363314 193.08737489 -39 187 C-39.69432129 186.53625977 -40.38864258 186.07251953 -41.10400391 185.59472656 C-60.20999098 172.88216457 -80.02296346 161.31584885 -100.24560547 150.48242188 C-103.14145693 148.92386753 -106.02689104 147.34733431 -108.91015625 145.765625 C-109.88766846 145.2296167 -110.86518066 144.6936084 -111.87231445 144.14135742 C-113.72157864 143.12674883 -115.57041108 142.11135271 -117.41870117 141.0949707 C-123.21341749 137.92494272 -129.07241421 134.91389472 -135 132 C-132.41489444 101.7327224 -113.70892869 71.17338619 -94.37744141 48.61083984 C-93.24971731 47.29203028 -92.14321589 45.95509962 -91.04296875 44.61328125 C-70.46250714 19.92674214 -44.09062855 7.04112461 -13 1 C-12.0203125 0.80792969 -11.040625 0.61585938 -10.03125 0.41796875 C-7 0 -7 0 0 0 Z " fill="#040403" transform="translate(1017,574)"/>
<path d="M0 0 C0.88544495 0.00182281 1.77088989 0.00364563 2.6831665 0.00552368 C17.24295013 0.05589731 31.44002469 0.84817454 45.8125 3.3125 C46.90224121 3.49474121 47.99198242 3.67698242 49.11474609 3.86474609 C62.34217043 6.11987028 75.15404313 8.81813796 87.8125 13.3125 C88.82924805 13.66425293 89.84599609 14.01600586 90.89355469 14.37841797 C94.34981167 15.5742057 97.800759 16.78413104 101.25 18 C102.37220947 18.3928418 103.49441895 18.78568359 104.65063477 19.19042969 C106.21382446 19.75165527 106.21382446 19.75165527 107.80859375 20.32421875 C108.74888428 20.65897217 109.6891748 20.99372559 110.65795898 21.33862305 C112.8125 22.3125 112.8125 22.3125 113.8125 24.3125 C113.21228027 24.22162109 112.61206055 24.13074219 111.99365234 24.03710938 C65.20184397 17.17020241 19.77112771 22.45304063 -22.30908203 44.33642578 C-24.05391857 45.24308766 -25.80598112 46.13580616 -27.55859375 47.02734375 C-39.97663645 53.48715789 -51.49804887 61.28120168 -62.1875 70.3125 C-62.72761719 70.76383301 -63.26773438 71.21516602 -63.82421875 71.68017578 C-75.47660499 81.42586637 -85.67421689 91.48880454 -94.875 103.59423828 C-96.06830302 105.15645307 -97.28301816 106.70225362 -98.5 108.24609375 C-107.67057846 120.05321351 -115.27617353 133.07308137 -122.1875 146.3125 C-129.59306763 144.02491628 -136.46937731 140.99593787 -143.5 137.75 C-156.53334742 131.79919746 -169.73679393 126.29123088 -183 120.875 C-184.40023911 120.3017952 -184.40023911 120.3017952 -185.82876587 119.7170105 C-196.15186153 115.49541671 -206.49958933 111.37664846 -216.96240234 107.51318359 C-219.66130538 106.50839895 -222.33513963 105.46602446 -225 104.375 C-232.97702547 101.13734717 -241.10202044 98.26580421 -249.1875 95.3125 C-249.1875 94.3225 -249.1875 93.3325 -249.1875 92.3125 C-247.88085938 91.02905273 -247.88085938 91.02905273 -246.03125 89.74609375 C-245.34675781 89.26575684 -244.66226563 88.78541992 -243.95703125 88.29052734 C-242.83361328 87.52796631 -242.83361328 87.52796631 -241.6875 86.75 C-240.91792969 86.21842285 -240.14835938 85.6868457 -239.35546875 85.13916016 C-231.7820642 79.95026248 -224.03980654 75.06526274 -216.1875 70.3125 C-215.55505371 69.92416992 -214.92260742 69.53583984 -214.27099609 69.13574219 C-184.02891894 50.58809048 -151.80533376 36.28032029 -118.42724609 24.46728516 C-115.45422739 23.40757314 -112.49666601 22.3127278 -109.5390625 21.2109375 C-103.9529534 19.17758563 -98.29110856 17.51845613 -92.5625 15.9375 C-90.94722412 15.4902356 -90.94722412 15.4902356 -89.29931641 15.03393555 C-70.97900463 10.01680441 -52.6276575 5.70401983 -33.85620117 2.75463867 C-32.07457861 2.45946728 -30.29811702 2.13129159 -28.52856445 1.77075195 C-19.04079299 -0.07997764 -9.62820586 -0.04098495 0 0 Z " fill="#040404" transform="translate(961.1875,538.6875)"/>
<path d="M0 0 C1.16789063 0.56267578 1.16789063 0.56267578 2.359375 1.13671875 C12.77924516 6.53393908 20.2964587 15.87508519 24 27 C24.52391266 30.31510827 24.57435654 33.52410642 24.5 36.875 C24.48791504 37.75196533 24.47583008 38.62893066 24.46337891 39.5324707 C24.11450552 50.94485936 20.13012445 60.23838032 12.4453125 68.71484375 C4.49561635 76.18907961 -5.50493226 79.18484621 -16.125 79.25 C-16.94226563 79.270625 -17.75953125 79.29125 -18.6015625 79.3125 C-29.1673957 79.37937236 -38.86892179 75.46174653 -46.7890625 68.40625 C-54.24245045 60.30307951 -58.39791351 49.67316775 -58.3125 38.75 C-58.30686035 37.99783203 -58.3012207 37.24566406 -58.29541016 36.47070312 C-58.02407664 23.99473436 -53.13592854 14.28104216 -44.12890625 5.63671875 C-32.06542012 -3.63777793 -14.00467029 -6.9196304 0 0 Z " fill="#070707" transform="translate(936,994)"/>
<path d="M0 0 C7.41716958 6.13942188 13.84767466 14.41348916 15.5625 24.125 C16.51085758 37.93059891 14.77044461 50.16121673 5.5625 61.125 C-3.14661771 70.18959191 -12.4854639 75.00172657 -25.125 75.5 C-37.3457195 75.23801736 -47.27890918 70.6686458 -56.2109375 62.50390625 C-65.16008409 53.03234755 -67.03431282 41.06453329 -66.76953125 28.55859375 C-66.17560289 17.17618891 -60.73527768 8.62151928 -52.4375 1.125 C-37.15988757 -11.50377945 -16.02038812 -11.26575498 0 0 Z " fill="#070808" transform="translate(645.4375,998.875)"/>
<path d="M0 0 C6.9083652 5.27946973 12.26996937 12.84406278 14.63671875 21.265625 C16.54614784 35.6376719 15.30383351 47.68716602 6.875 59.8125 C0.32851667 67.65404852 -9.26986739 72.86452729 -19.37011719 74.34814453 C-33.14703636 75.44793534 -43.20849237 73.23550128 -54.18359375 64.56640625 C-61.97821486 57.46367939 -66.41239919 46.77983475 -67.1953125 36.4140625 C-67.63288721 25.29966495 -64.87974008 15.2133826 -58.12109375 6.2890625 C-41.94026856 -11.17311717 -19.61372724 -11.868684 0 0 Z " fill="#070707" transform="translate(550,999)"/>
<path d="M0 0 C48.80110619 0 48.80110619 0 61.875 12.25 C70.99212998 21.90631509 72.73053014 32.24170594 72.4765625 45.0078125 C71.91258429 54.30458545 66.94921976 62.91653781 60.58984375 69.61328125 C43.4915891 84.52699231 21.85374277 80 0 80 C0 53.6 0 27.2 0 0 Z " fill="#0A0A0A" transform="translate(1404,992)"/>
<path d="M0 0 C6.579375 -0.04125 13.15875 -0.0825 19.9375 -0.125 C21.99605225 -0.14320801 24.05460449 -0.16141602 26.17553711 -0.18017578 C27.83447002 -0.18602517 29.49340583 -0.19111966 31.15234375 -0.1953125 C31.99156372 -0.20554443 32.83078369 -0.21577637 33.69543457 -0.22631836 C42.86761304 -0.22898508 50.68995817 1.22804389 58 7 C62.78326633 12.1512099 63.35345813 16.31695712 63.28125 23.140625 C62.71703187 28.87684269 60.46641803 32.6668927 56.25 36.5 C55.5075 36.995 54.765 37.49 54 38 C54.60328125 38.3403125 55.2065625 38.680625 55.828125 39.03125 C61.49462905 42.46771052 65.27724672 45.43767007 67 52 C68.23994481 59.95233832 66.70255205 66.45423659 62 73 C55.95638501 78.98739532 49.07058101 80.22832717 40.80834961 80.22631836 C39.78104736 80.21608643 38.75374512 80.20585449 37.6953125 80.1953125 C36.73810303 80.19329834 35.78089355 80.19128418 34.79467773 80.18920898 C31.23806935 80.17878896 27.68152958 80.1508665 24.125 80.125 C16.16375 80.08375 8.2025 80.0425 0 80 C0 53.6 0 27.2 0 0 Z " fill="#0D0D0D" transform="translate(1201,992)"/>
<path d="M0 0 C7.569375 -0.103125 15.13875 -0.20625 22.9375 -0.3125 C26.49519165 -0.38078003 26.49519165 -0.38078003 30.12475586 -0.45043945 C32.02977082 -0.46505877 33.93480155 -0.47779601 35.83984375 -0.48828125 C36.8086145 -0.51386108 37.77738525 -0.53944092 38.7755127 -0.5657959 C46.28315087 -0.5705554 52.10554835 1.28539077 57.62437439 6.54936218 C62.37798049 11.99412962 62.34299004 16.8823703 62.28125 23.828125 C61.78980139 29.37057324 59.31027109 31.86840224 55.25 35.375 C54.5075 35.91125 53.765 36.4475 53 37 C53.53109375 37.30292969 54.0621875 37.60585937 54.609375 37.91796875 C59.60218663 40.87903404 63.33682775 43.6736555 66 49 C67.3785783 64.25161309 67.3785783 64.25161309 63.375 69.75 C58.14119111 75.3147523 52.2170346 78.6310627 44.5617981 79.17242432 C41.71746063 79.23059737 38.87991562 79.22504417 36.03515625 79.1953125 C35.11827026 79.19329834 34.20138428 79.19128418 33.25671387 79.18920898 C29.85859109 79.17880987 26.46054008 79.15088765 23.0625 79.125 C15.451875 79.08375 7.84125 79.0425 0 79 C0 52.93 0 26.86 0 0 Z " fill="#060707" transform="translate(405,993)"/>
<path d="M0 0 C0.70670837 0.06312378 1.41341675 0.12624756 2.14154053 0.19128418 C10.7727498 0.97880604 19.17228626 2.19538104 27.75 3.625 C27.75 15.835 27.75 28.045 27.75 40.625 C23.769375 40.480625 19.78875 40.33625 15.6875 40.1875 C14.44605225 40.14439697 13.20460449 40.10129395 11.92553711 40.05688477 C10.9278833 40.01877686 9.93022949 39.98066895 8.90234375 39.94140625 C7.89163818 39.90474854 6.88093262 39.86809082 5.83959961 39.83032227 C2.75 39.625 2.75 39.625 -0.29199219 39.11352539 C-6.1040338 38.396162 -11.87988206 38.48274398 -17.73046875 38.4921875 C-19.0658622 38.49151115 -20.40125553 38.49053839 -21.73664856 38.48928833 C-24.54327561 38.48781622 -27.34987081 38.48994311 -30.15649414 38.49462891 C-33.66215095 38.50021116 -37.16772986 38.49702984 -40.67338371 38.49117661 C-58.89479031 38.46560275 -77.04046232 38.87495039 -95.25 39.625 C-95.25 27.745 -95.25 15.865 -95.25 3.625 C-88.80015666 2.33503133 -82.62808201 1.19953099 -76.125 0.5625 C-75.29572998 0.48016113 -74.46645996 0.39782227 -73.61206055 0.31298828 C-71.15873626 0.0753497 -68.70463686 -0.1513817 -66.25 -0.375 C-65.04214844 -0.48972656 -63.83429687 -0.60445313 -62.58984375 -0.72265625 C-41.76960298 -2.35968515 -20.77964173 -1.8733436 0 0 Z " fill="#040404" transform="translate(1060.25,482.375)"/>
<path d="M0 0 C5.61 0 11.22 0 17 0 C25.03944986 25.0354713 25.03944986 25.0354713 28.05859375 35 C28.79450338 37.34513941 29.5578701 39.67290252 30.34765625 42 C30.58009033 42.68562012 30.81252441 43.37124023 31.05200195 44.07763672 C31.7122608 46.01430363 32.37936219 47.94863383 33.046875 49.8828125 C34 53 34 53 34 56 C34.66 56 35.32 56 36 56 C36.10127197 54.88125488 36.20254395 53.76250977 36.30688477 52.60986328 C36.93897805 47.59234325 38.45250934 43.01085929 40.08984375 38.2421875 C40.54672325 36.8821611 40.54672325 36.8821611 41.01283264 35.49465942 C41.98064973 32.61899541 42.95885985 29.74699646 43.9375 26.875 C44.59119124 24.9390371 45.24419264 23.00284113 45.89648438 21.06640625 C47.33619764 16.79615023 48.78246351 12.52818039 50.23472595 8.26217651 C51.16538605 5.51111314 52.08160586 2.75518241 53 0 C57.29 0 61.58 0 66 0 C70.33543511 9.95306915 73.80684383 20.06758849 77.1875 30.375 C77.72548481 32.00404721 78.26389381 33.6329544 78.80273438 35.26171875 C79.78801542 38.24182239 80.77088866 41.22269419 81.75073242 44.20458984 C82.82630398 47.47229269 83.90954295 50.73724024 85 54 C90.24347054 40.19322845 94.60615613 26.20173928 98.46386719 11.95019531 C99.56540869 7.94331303 100.78251513 3.97284536 102 0 C107.28 0 112.56 0 118 0 C116.64659268 5.69720035 115.01386851 11.20931903 113.125 16.75 C112.62754572 18.22393861 112.13015111 19.69789736 111.6328125 21.171875 C111.37072998 21.9455542 111.10864746 22.7192334 110.83862305 23.51635742 C109.21020464 28.33903587 107.60777705 33.17041021 106 38 C105.1030977 40.69148397 104.20583434 43.38284754 103.30859375 46.07421875 C102.83397824 47.49804483 102.35936893 48.92187298 101.88476562 50.34570312 C98.58984375 60.23046875 95.29492188 70.11523438 92 80 C87.71 80 83.42 80 79 80 C75.4839128 71.58347242 72.5567536 63.00964911 69.68115234 54.35913086 C68.87497019 51.93741044 68.06079253 49.51847603 67.24609375 47.09960938 C66.72347196 45.53401644 66.20132051 43.96826641 65.6796875 42.40234375 C65.32026566 41.33789284 65.32026566 41.33789284 64.95358276 40.25193787 C63.29466847 35.22971255 62.06270199 30.18006996 61 25 C60.34 25 59.68 25 59 25 C58.92394531 25.88042969 58.84789062 26.76085937 58.76953125 27.66796875 C57.89599228 33.75520442 55.66059408 39.51318187 53.6875 45.3125 C53.29626953 46.48490234 52.90503906 47.65730469 52.50195312 48.86523438 C50.45081418 54.95742318 48.26663327 60.9534658 45.83276367 66.90258789 C44.83429864 69.41733813 44.03623783 71.95620713 43.3125 74.5625 C42.1017316 78.8982684 42.1017316 78.8982684 41 80 C38.81360547 80.07258946 36.62499611 80.08373783 34.4375 80.0625 C32.64119141 80.04896484 32.64119141 80.04896484 30.80859375 80.03515625 C29.41833984 80.01775391 29.41833984 80.01775391 28 80 C24.37273392 71.24970079 21.31374609 62.33474017 18.26757812 53.36914062 C16.02315662 46.73250226 16.02315662 46.73250226 13.40625 40.23828125 C11.71788606 36.35035429 10.38116576 32.40030955 9.0625 28.375 C8.80307617 27.5902832 8.54365234 26.80556641 8.27636719 25.99707031 C6.39729703 20.285349 4.59556885 14.55372829 2.859375 8.796875 C1.95377516 5.84955917 0.97502727 2.9250818 0 0 Z " fill="#080808" transform="translate(751,992)"/>
<path d="M0 0 C10.085625 -0.0928125 10.085625 -0.0928125 20.375 -0.1875 C22.47665527 -0.21481201 24.57831055 -0.24212402 26.74365234 -0.27026367 C28.44107492 -0.27903935 30.13850389 -0.28668072 31.8359375 -0.29296875 C32.6916333 -0.30831665 33.5473291 -0.32366455 34.42895508 -0.33947754 C43.90197805 -0.3435109 52.65327497 1.84606554 59.625 8.56640625 C64.82056623 14.14914208 66.54576256 20.02784824 66.30078125 27.609375 C65.25269582 35.93961247 61.56648234 41.10166657 55.31640625 46.50390625 C52.82999362 48.10980176 50.91470216 48.62473852 48 49 C51.30105473 54.2770382 54.6559135 59.50785512 58.13671875 64.66796875 C58.95221191 65.87864014 58.95221191 65.87864014 59.78417969 67.11376953 C60.88115787 68.73850243 61.98203819 70.36060792 63.08691406 71.97998047 C63.59319336 72.73037598 64.09947266 73.48077148 64.62109375 74.25390625 C65.0792749 74.92752197 65.53745605 75.6011377 66.00952148 76.29516602 C67 78 67 78 67 80 C61.63835027 81.04103098 56.25158011 81.90348535 51 80 C46.22864011 76.0470943 43.23395272 70.40576605 40.20410156 65.0859375 C38.69583929 62.47308412 36.99124497 60.0245394 35.25 57.5625 C33 54.25862069 33 54.25862069 33 52 C27.06 52 21.12 52 15 52 C15 61.24 15 70.48 15 80 C10.05 80 5.1 80 0 80 C0 53.6 0 27.2 0 0 Z " fill="#0A0A0A" transform="translate(1284,992)"/>
<path d="M0 0 C10.085625 -0.0928125 10.085625 -0.0928125 20.375 -0.1875 C22.47665527 -0.21481201 24.57831055 -0.24212402 26.74365234 -0.27026367 C28.44107492 -0.27903935 30.13850389 -0.28668072 31.8359375 -0.29296875 C32.6916333 -0.30831665 33.5473291 -0.32366455 34.42895508 -0.33947754 C42.97110392 -0.34311456 51.33053339 1.3915849 58 7 C64.49620638 14.41331787 65.37545692 19.62474858 65.2734375 29.44921875 C64.75452234 36.18770277 62.59814143 40.86711139 57.5625 45.375 C54.86006465 47.51939186 51.96081003 49.23607444 49 51 C49.54527344 51.80743652 50.09054687 52.61487305 50.65234375 53.44677734 C52.66969201 56.43666291 54.68097549 59.43058573 56.69042969 62.42578125 C57.56181975 63.72279435 58.43486175 65.01869916 59.30957031 66.31347656 C60.56488615 68.17225489 61.81425245 70.03490761 63.0625 71.8984375 C63.45622803 72.47870697 63.84995605 73.05897644 64.25561523 73.65682983 C67 77.77225659 67 77.77225659 67 80 C61.63835027 81.04103098 56.25158011 81.90348535 51 80 C46.22864011 76.0470943 43.23395272 70.40576605 40.20410156 65.0859375 C38.69583929 62.47308412 36.99124497 60.0245394 35.25 57.5625 C33 54.25862069 33 54.25862069 33 52 C26.73 52 20.46 52 14 52 C14 61.24 14 70.48 14 80 C9.38 80 4.76 80 0 80 C0 53.6 0 27.2 0 0 Z " fill="#070808" transform="translate(978,992)"/>
<path d="M0 0 C5.28 0 10.56 0 16 0 C19.39000319 3.59096548 20.89099239 5.75968936 23 10 C24.25364972 11.96931459 25.52905486 13.92492385 26.82421875 15.8671875 C28.77473996 18.89474423 30.71981272 21.92559872 32.65820312 24.9609375 C33.60663086 26.43046875 33.60663086 26.43046875 34.57421875 27.9296875 C35.13713623 28.80866699 35.70005371 29.68764648 36.2800293 30.59326172 C37.99879128 32.99830864 39.8522171 34.97582839 42 37 C42.21398438 36.360625 42.42796875 35.72125 42.6484375 35.0625 C44.94407383 29.86082692 48.17684973 25.21696622 51.28051758 20.46557617 C53.73930977 16.67625458 56.10018919 12.98027569 57.97265625 8.86328125 C59.6875 5.3125 59.6875 5.3125 64 0 C69.61 0 75.22 0 81 0 C81 26.4 81 52.8 81 80 C76.38 80 71.76 80 67 80 C67 61.52 67 43.04 67 24 C66.34 24 65.68 24 65 24 C64.72615479 24.73863281 64.45230957 25.47726562 64.17016602 26.23828125 C63.07497566 28.82304931 61.87270757 30.88892547 60.27734375 33.1875 C59.74278564 33.96311279 59.20822754 34.73872559 58.6574707 35.5378418 C58.08988037 36.350354 57.52229004 37.16286621 56.9375 38 C56.35766357 38.83635986 55.77782715 39.67271973 55.18041992 40.53442383 C54.00891172 42.22408355 52.83583148 43.91265447 51.66113281 45.60009766 C50.16057076 47.76801725 48.68038461 49.94764145 47.2109375 52.13671875 C46.80109619 52.74322266 46.39125488 53.34972656 45.96899414 53.97460938 C44.87884318 55.58923871 43.79280258 57.20664105 42.70703125 58.82421875 C42.14371094 59.54222656 41.58039063 60.26023437 41 61 C40.34 61 39.68 61 39 61 C37.48874641 58.77756825 36.06958353 56.49248056 34.6875 54.1875 C28.7538187 44.60232251 22.36577376 35.30382318 16 26 C15.67 43.82 15.34 61.64 15 80 C10.05 80 5.1 80 0 80 C0 53.6 0 27.2 0 0 Z " fill="#090909" transform="translate(1061,992)"/>
<path d="M0 0 C7.32331045 0.81370116 14.0576642 1.96863268 21.1875 3.625 C22.32082764 3.88716309 23.45415527 4.14932617 24.62182617 4.41943359 C34.83298078 6.8458042 44.76352469 9.91995043 54.70996094 13.25097656 C57.76279762 14.249495 60.84853474 15.12065953 63.9375 16 C69.91453317 17.82415947 75.44981915 20.40789717 81.05859375 23.12109375 C85.96837049 25.49068673 90.97466987 27.63334334 95.9855957 29.77856445 C100.89734706 31.89734706 100.89734706 31.89734706 102 33 C102.08758003 34.99964982 102.10696576 37.0023611 102.09765625 39.00390625 C102.09282227 40.82631836 102.09282227 40.82631836 102.08789062 42.68554688 C102.07532227 44.60463867 102.07532227 44.60463867 102.0625 46.5625 C102.05798828 47.84576172 102.05347656 49.12902344 102.04882812 50.45117188 C102.03699545 53.63416022 102.02051068 56.81705762 102 60 C96.06106377 58.4001233 90.13658373 56.75848496 84.2265625 55.0546875 C66.69711187 50.03196328 49.00019041 45.52776663 31.1875 41.625 C30.1238623 41.38668457 29.06022461 41.14836914 27.96435547 40.90283203 C18.59787244 38.90551425 9.66778085 38.07419787 0 37 C0 24.79 0 12.58 0 0 Z " fill="#070706" transform="translate(1102,489)"/>
<path d="M0 0 C0.02465098 4.96622349 0.04283649 9.93241166 0.05493164 14.89868164 C0.0599719 16.58944316 0.06680405 18.28020029 0.07543945 19.97094727 C0.08751857 22.39600707 0.09323123 24.82100944 0.09765625 27.24609375 C0.10281754 28.00651474 0.10797882 28.76693573 0.11329651 29.55039978 C0.11349238 31.3673257 0.06197277 33.18413127 0 35 C-1.50778673 36.50778673 -2.97059967 36.31747845 -5.07421875 36.54296875 C-6.39450073 36.69463501 -6.39450073 36.69463501 -7.74145508 36.84936523 C-8.7136499 36.96094971 -9.68584473 37.07253418 -10.6875 37.1875 C-25.28825177 38.97494368 -39.61563476 41.9682799 -54 45 C-55.73557937 45.35594553 -57.47124375 45.71147708 -59.20703125 46.06640625 C-71.18309513 48.56612713 -83.51448932 51.45556815 -94.82421875 56.1796875 C-97 57 -97 57 -101 57 C-101 48.75 -101 40.5 -101 32 C-76.33093867 20.74744571 -51.33349847 11.55687732 -25 5 C-24.03932617 4.75878418 -23.07865234 4.51756836 -22.08886719 4.26904297 C-19.18652211 3.54464892 -16.28178434 2.83135663 -13.375 2.125 C-12.04952148 1.8014856 -12.04952148 1.8014856 -10.69726562 1.47143555 C-9.87677734 1.27718994 -9.05628906 1.08294434 -8.2109375 0.8828125 C-7.49212402 0.71152832 -6.77331055 0.54024414 -6.03271484 0.36376953 C-4 0 -4 0 0 0 Z " fill="#060606" transform="translate(951,489)"/>
<path d="M0 0 C1.36318359 0.58007812 1.36318359 0.58007812 2.75390625 1.171875 C10.30064973 4.65003274 10.30064973 4.65003274 12 9 C11.57847656 9.55429687 11.15695312 10.10859375 10.72265625 10.6796875 C10.17480469 11.40414062 9.62695312 12.12859375 9.0625 12.875 C8.51722656 13.59429688 7.97195313 14.31359375 7.41015625 15.0546875 C5.96035376 16.94357079 5.96035376 16.94357079 5 19 C2.83899818 17.92200605 0.68119281 16.83833 -1.47265625 15.74609375 C-2.32730469 15.31425781 -3.18195313 14.88242187 -4.0625 14.4375 C-4.91972656 14.00308594 -5.77695313 13.56867187 -6.66015625 13.12109375 C-13.00596655 10.08061369 -20.48017937 9.89326734 -27.1875 12.0625 C-33.47003902 14.79010439 -39.06206534 19.79769349 -42 26 C-42.34289063 26.71542969 -42.68578125 27.43085937 -43.0390625 28.16796875 C-45.30694505 34.85176894 -45.29147825 43.40132573 -42.90234375 50.05859375 C-39.40586575 56.18442321 -34.83478797 61.42160778 -28.23828125 64.13671875 C-19.10871162 66.57053647 -9.62427187 65.63127237 -1 62 C-0.67 56.72 -0.34 51.44 0 46 C-6.6 46 -13.2 46 -20 46 C-20 41.38 -20 36.76 -20 32 C-8.45 32 3.1 32 15 32 C15.25375122 37.00581959 15.4719619 41.98918693 15.60424805 46.99633789 C15.65936775 48.69535016 15.73429677 50.39384511 15.82983398 52.09106445 C16.60162605 66.16079259 16.60162605 66.16079259 12.70898438 70.63085938 C9.84893023 72.48786135 7.18658431 73.79795733 4 75 C2.96447998 75.42482666 1.92895996 75.84965332 0.86206055 76.28735352 C-10.6884623 80.87727228 -23.77205364 82.27161788 -35.4375 77.32421875 C-43.30335339 73.25939512 -49.38805663 68.6090223 -54 61 C-54.48597656 60.30390625 -54.97195313 59.6078125 -55.47265625 58.890625 C-61.17937922 49.16217248 -61.13277911 34.4053506 -58.40380859 23.65039062 C-54.63822337 13.04578299 -46.97524263 4.98762132 -37 0 C-25.93978561 -5.04394393 -11.09227557 -4.77821101 0 0 Z " fill="#0A0A0A" transform="translate(1550,994)"/>
<path d="M0 0 C20.13 0 40.26 0 61 0 C61 4.62 61 9.24 61 14 C45.82 14 30.64 14 15 14 C15 20.27 15 26.54 15 33 C28.2 33 41.4 33 55 33 C55 37.29 55 41.58 55 46 C41.8 46 28.6 46 15 46 C15 52.93 15 59.86 15 67 C30.18 67 45.36 67 61 67 C61 71.29 61 75.58 61 80 C40.87 80 20.74 80 0 80 C0 53.6 0 27.2 0 0 Z " fill="#0C0D0D" transform="translate(1582,992)"/>
<path d="M0 0 C4.62 0 9.24 0 14 0 C14.33 12.54 14.66 25.08 15 38 C19.455 33.05 19.455 33.05 24 28 C28.125 23.875 28.125 23.875 30.11328125 21.9140625 C31.92148646 20.07965142 33.62629078 18.19655031 35.3125 16.25 C35.89 15.60546875 36.4675 14.9609375 37.0625 14.296875 C39.12814641 11.91306018 39.12814641 11.91306018 41.25 8.828125 C47.39216854 0.6161298 47.39216854 0.6161298 52.25683594 -0.53320312 C57.55476127 -1.0349565 62.72913501 -0.62624139 68 0 C64.53440626 4.19519242 60.93494625 8.11235081 57.0625 11.9375 C53.44435497 15.51237872 50.04204105 19.17547705 46.73828125 23.0390625 C43.65460207 26.5177298 40.32448972 29.75322563 37 33 C40.50533143 38.45372631 44.42333735 43.55147192 48.375 48.6875 C53.97296501 56.00055318 59.52727098 63.34266199 65 70.75 C65.60505371 71.56557373 66.21010742 72.38114746 66.83349609 73.22143555 C67.38344238 73.96820557 67.93338867 74.71497559 68.5 75.484375 C68.9846875 76.14147461 69.469375 76.79857422 69.96875 77.47558594 C71 79 71 79 71 80 C64.9670801 81.03595594 58.94509967 81.85643915 53 80 C47.94737679 76.37059661 44.82700978 70.72823261 41.6015625 65.52099609 C38.84123129 61.17599913 35.73794407 57.08110663 32.6875 52.9375 C31.58461664 51.40683441 30.48410878 49.8744525 29.38671875 48.33984375 C28.92483154 47.69394287 28.46294434 47.04804199 27.98706055 46.38256836 C27.66133057 45.9263208 27.33560059 45.47007324 27 45 C21.46142266 47.71971431 17.76291889 50.29081062 15 56 C13.68949144 63.90900966 13.89875584 72.00803912 14 80 C9.38 80 4.76 80 0 80 C0 53.6 0 27.2 0 0 Z " fill="#050505" transform="translate(679,992)"/>
<path d="M0 0 C6.6240386 4.1636814 10.76325114 10.16026865 13.32421875 17.4609375 C13.76324117 20.26665575 13.84941716 22.99904282 13.82421875 25.8359375 C13.81849854 26.58472168 13.81277832 27.33350586 13.80688477 28.10498047 C13.60796748 34.26806739 12.33265282 38.65485534 8.32421875 43.4609375 C7.78152344 44.11578125 7.23882813 44.770625 6.6796875 45.4453125 C2.07207683 50.47936118 -2.13675481 53.12308295 -8.94921875 53.7734375 C-17.36877805 54.06067193 -23.32178438 53.51868304 -29.5703125 47.6953125 C-31.43205173 45.70423139 -33.06704708 43.66021965 -34.67578125 41.4609375 C-35.33126953 40.60242187 -35.33126953 40.60242187 -36 39.7265625 C-40.15652986 33.13445198 -39.5154368 24.91380933 -38.67578125 17.4609375 C-36.17704525 8.58294002 -30.20632999 3.65291502 -22.92578125 -1.4765625 C-15.30365356 -3.96841194 -7.27400032 -3.30316923 0 0 Z " fill="#FBFBFB" transform="translate(931.67578125,1006.5390625)"/>
<path d="M0 0 C5.08985353 3.87798364 8.26373569 8.61184797 10.0546875 14.75 C11.22280911 24.1139667 11.04698305 32.98220947 5.0546875 40.75 C-0.30145086 46.5787388 -5.03799632 50.22639058 -13.09375 51.0859375 C-21.28184192 51.18506694 -26.57873643 50.48764536 -32.84375 45.125 C-39.13116526 38.75799721 -42.01280908 30.49829602 -42.4453125 21.625 C-42.11909993 14.39007123 -39.23783524 6.76396891 -33.9453125 1.75 C-22.20482426 -6.26023278 -12.33901674 -7.92868545 0 0 Z " fill="#FBFBFB" transform="translate(539.9453125,1009.25)"/>
<path d="M0 0 C7.81731512 4.45462877 12.35306908 9.38243938 15.08984375 18.04296875 C17.06908445 26.72117796 16.03009658 34.13732398 11.75 41.9375 C8.1036774 47.62310332 3.22505565 51.85557701 -3.25 53.9375 C-9.84334745 54.80952337 -16.79864559 55.34821773 -22.75 51.9375 C-29.06842603 47.05069991 -34.75413001 40.98285483 -36.25 32.9375 C-37.22729684 21.96699882 -35.68745809 14.31492234 -28.859375 5.6953125 C-21.27141606 -2.59250673 -10.09416176 -4.68492393 0 0 Z " fill="#FBFBFB" transform="translate(630.25,1006.0625)"/>
<path d="M0 0 C26.91891892 0 26.91891892 0 35.8125 7.3125 C36.534375 8.199375 37.25625 9.08625 38 10 C38.4640625 10.49371094 38.928125 10.98742187 39.40625 11.49609375 C44.36511072 17.68089503 43.96360043 25.47773853 43.28662109 33.01318359 C42.26959606 40.06305558 38.46704442 45.24821189 33.13671875 49.74609375 C21.6623146 56.47970204 14.84853451 54 0 54 C0 36.18 0 18.36 0 0 Z " fill="#FAFAFA" transform="translate(1418,1005)"/>
<path d="M0 0 C22.43054334 7.47684778 43.51601765 23.63609676 61.45507812 38.7109375 C63.7915399 40.66045049 66.18373305 42.53998648 68.5625 44.4375 C77.131111 51.46453181 85.21008821 59.12256111 93 67 C89.01754786 65.55759806 85.67578613 63.63686328 82.11328125 61.35546875 C75.01689305 56.90140886 67.68304561 53.0462522 60.1875 49.3125 C59.51022858 48.97327515 58.83295715 48.63405029 58.13516235 48.2845459 C39.2849243 38.87875047 19.78758018 31.1954837 0 24 C0 16.08 0 8.16 0 0 Z " fill="#090909" transform="translate(1218,530)"/>
<path d="M0 0 C0 7.59 0 15.18 0 23 C-2.5575 23.825 -5.115 24.65 -7.75 25.5 C-36.61170403 35.32632872 -66.90015076 48.65283457 -92 66 C-92.33 65.34 -92.66 64.68 -93 64 C-92.32195313 63.45472656 -91.64390625 62.90945313 -90.9453125 62.34765625 C-86.20642325 58.50797452 -81.54741325 54.63487124 -77.0625 50.5 C-72.22442671 46.10793659 -67.12235078 42.20638552 -61.84619141 38.35742188 C-59.74343043 36.81135589 -57.65883082 35.24232121 -55.57421875 33.671875 C-45.67354887 26.24357923 -35.63411012 19.33115877 -25 13 C-24.25878906 12.5560791 -23.51757812 12.1121582 -22.75390625 11.65478516 C-3.26490351 0 -3.26490351 0 0 0 Z " fill="#080809" transform="translate(836,529)"/>
<path d="M0 0 C4.62 0 9.24 0 14 0 C14 26.4 14 52.8 14 80 C9.38 80 4.76 80 0 80 C0 53.6 0 27.2 0 0 Z " fill="#020202" transform="translate(1368,992)"/>
<path d="M0 0 C0 3.36639362 -0.46959951 4.03627034 -2.34375 6.703125 C-2.84422852 7.42822266 -3.34470703 8.15332031 -3.86035156 8.90039062 C-4.67197754 10.06344727 -4.67197754 10.06344727 -5.5 11.25 C-19.66907414 32.0668077 -29.21337156 54.80281542 -36 79 C-42.16356805 77.3341708 -47.48259656 74.12194714 -53 71 C-46.11542271 43.46169085 -19.41397981 19.02141217 0 0 Z " fill="#080808" transform="translate(905,620)"/>
<path d="M0 0 C4.54230412 -0.10800723 9.08203539 -0.18733842 13.625 -0.25 C15.55279297 -0.30027344 15.55279297 -0.30027344 17.51953125 -0.3515625 C29.27806449 -0.47341259 29.27806449 -0.47341259 34 4 C36.87445753 6.87445753 36.71575671 9.50846116 37.0234375 13.45703125 C36.99006724 17.07770409 36.17825548 19.11908146 34 22 C29.61270329 24.66623625 26.3902561 25.36316866 21.2890625 25.29296875 C20.04511719 25.28330078 18.80117188 25.27363281 17.51953125 25.26367188 C16.23433594 25.23853516 14.94914063 25.21339844 13.625 25.1875 C11.66240234 25.16719727 11.66240234 25.16719727 9.66015625 25.14648438 C6.43992699 25.11122639 3.21991029 25.05742244 0 25 C0 16.75 0 8.5 0 0 Z " fill="#FAFAFA" transform="translate(992,1006)"/>
<path d="M0 0 C4.37566252 -0.10804105 8.74865081 -0.18735287 13.125 -0.25 C14.3625 -0.28351562 15.6 -0.31703125 16.875 -0.3515625 C28.27140516 -0.47410449 28.27140516 -0.47410449 33 4 C35.37302167 6.92672672 35.95966626 8.68309204 36.4375 12.4375 C35.91233829 16.71381679 34.76012209 18.71769265 32 22 C28.1104267 24.86504404 25.39674144 25.36109111 20.60546875 25.29296875 C19.40341797 25.28330078 18.20136719 25.27363281 16.96289062 25.26367188 C15.71701172 25.23853516 14.47113281 25.21339844 13.1875 25.1875 C11.28967773 25.16719727 11.28967773 25.16719727 9.35351562 25.14648438 C6.23549456 25.11118602 3.11769286 25.05738085 0 25 C0 16.75 0 8.5 0 0 Z " fill="#FCFDFD" transform="translate(1299,1006)"/>
<path d="M0 0 C4.30609894 -0.09216383 8.60873719 -0.1716866 12.91503906 -0.21972656 C14.37772252 -0.23976332 15.84032666 -0.26700104 17.30273438 -0.30175781 C19.4129601 -0.35063225 21.52212136 -0.37304659 23.6328125 -0.390625 C24.90012207 -0.41157227 26.16743164 -0.43251953 27.47314453 -0.45410156 C31.65357099 0.08415077 33.75089643 1.36237331 37 4 C39.48386059 7.72579089 39.3804212 9.58711402 39 14 C37.77832955 16.7487585 36.84335596 18.42434832 34.35253906 20.12451172 C31.04505093 21.35538059 28.13272399 21.22327559 24.609375 21.1953125 C23.90476135 21.1924826 23.20014771 21.18965271 22.47418213 21.18673706 C20.2326124 21.17557801 17.99144814 21.15048193 15.75 21.125 C14.22656829 21.11496464 12.70313029 21.10583976 11.1796875 21.09765625 C7.45284464 21.07735754 3.72687404 21.03820258 0 21 C0 14.07 0 7.14 0 0 Z " fill="#F9F9F9" transform="translate(418,1038)"/>
<path d="M0 0 C4.02059946 -0.06914407 8.03967009 -0.12879137 12.06054688 -0.16479492 C13.42617816 -0.17981428 14.79176176 -0.20023608 16.15722656 -0.22631836 C18.12803905 -0.26300137 20.09921408 -0.27818551 22.0703125 -0.29296875 C23.25383301 -0.3086792 24.43735352 -0.32438965 25.65673828 -0.34057617 C30.20089612 0.12233461 33.53524575 1.63289604 36.875 4.75 C38.50340357 8.00680714 38.37833086 10.40585687 38 14 C36.77832955 16.7487585 35.84335596 18.42434832 33.35253906 20.12451172 C30.04505093 21.35538059 27.13272399 21.22327559 23.609375 21.1953125 C22.90476135 21.1924826 22.20014771 21.18965271 21.47418213 21.18673706 C19.2326124 21.17557801 16.99144814 21.15048193 14.75 21.125 C13.22656829 21.11496464 11.70313029 21.10583976 10.1796875 21.09765625 C6.45284464 21.07735754 2.72687404 21.03820258 -1 21 C-0.67 14.07 -0.34 7.14 0 0 Z " fill="#FBFCFB" transform="translate(1216,1038)"/>
<path d="M0 0 C4.58348959 -0.05385301 9.16634894 -0.09360513 13.75 -0.125 C15.05195313 -0.14175781 16.35390625 -0.15851562 17.6953125 -0.17578125 C18.94570313 -0.18222656 20.19609375 -0.18867187 21.484375 -0.1953125 C22.63647461 -0.20578613 23.78857422 -0.21625977 24.97558594 -0.22705078 C27.95473434 -0.00339821 29.55642845 0.32811918 32 2 C34.44605705 5.66908557 34.83946402 8.73618769 34 13 C31.82425584 15.69105198 30.08934144 17.45532928 27 19 C24.96767366 19.08527628 22.93252994 19.10716135 20.8984375 19.09765625 C19.68671875 19.09443359 18.475 19.09121094 17.2265625 19.08789062 C15.95554687 19.07951172 14.68453125 19.07113281 13.375 19.0625 C12.09625 19.05798828 10.8175 19.05347656 9.5 19.04882812 C6.33331355 19.03701213 3.16665104 19.01907621 0 19 C0 12.73 0 6.46 0 0 Z " fill="#FCFCFC" transform="translate(419,1006)"/>
<path d="M0 0 C4.54266205 -0.13501968 9.081306 -0.23416045 13.625 -0.3125 C14.91019531 -0.35439453 16.19539063 -0.39628906 17.51953125 -0.43945312 C28.18700438 -0.57763283 28.18700438 -0.57763283 31.86328125 2.30078125 C34 5 34 5 34.5625 8.5 C33.97588435 12.15005291 33.29864977 14.12668779 31 17 C27.59072305 19.23436677 24.72003589 19.23320789 20.703125 19.1953125 C18.89521484 19.18564453 18.89521484 19.18564453 17.05078125 19.17578125 C15.16939453 19.15064453 15.16939453 19.15064453 13.25 19.125 C11.98027344 19.11597656 10.71054688 19.10695313 9.40234375 19.09765625 C6.26814871 19.07409087 3.13405059 19.03822013 0 19 C0 12.73 0 6.46 0 0 Z " fill="#FDFDFD" transform="translate(1216,1006)"/>
<path d="M0 0 C0.66 0.33 1.32 0.66 2 1 C-0.19874695 5.34496412 -2.5368449 7.32210694 -6.6875 9.8125 C-8.17830078 10.71935547 -8.17830078 10.71935547 -9.69921875 11.64453125 C-10.45847656 12.09183594 -11.21773437 12.53914062 -12 13 C-12.33 12.34 -12.66 11.68 -13 11 C-12.22914063 10.37351562 -11.45828125 9.74703125 -10.6640625 9.1015625 C-9.15972656 7.87566406 -9.15972656 7.87566406 -7.625 6.625 C-6.62726562 5.81289063 -5.62953125 5.00078125 -4.6015625 4.1640625 C-2.03639494 2.09734084 -2.03639494 2.09734084 0 0 Z " fill="#2A2A2A" transform="translate(756,582)"/>
<path d="M0 0 C0.33 0.66 0.66 1.32 1 2 C-4.61 1.34 -10.22 0.68 -16 0 C-16 -0.33 -16 -0.66 -16 -1 C-10.35405862 -2.20126412 -5.47741912 -2.00995423 0 0 Z " fill="#40403F" transform="translate(1074,561)"/>
<path d="M0 0 C2 1 2 1 3 3 C1.3789897 3.69685498 -0.24696066 4.38222861 -1.875 5.0625 C-2.77992187 5.44535156 -3.68484375 5.82820312 -4.6171875 6.22265625 C-7 7 -7 7 -9 6 C-6.03 4.02 -3.06 2.04 0 0 Z " fill="#292929" transform="translate(1078,772)"/>
</svg>
